<?xml version="1.0" standalone="no"?>
<!DOCTYPE svg PUBLIC "-//W3C//DTD SVG 20010904//EN"
 "http://www.w3.org/TR/2001/REC-SVG-20010904/DTD/svg10.dtd">
<svg version="1.0" xmlns="http://www.w3.org/2000/svg"
 width="700.000000pt" height="700.000000pt" viewBox="0 0 700.000000 700.000000"
 preserveAspectRatio="xMidYMid meet">
<metadata>
Created by potrace 1.14, written by Peter Selinger 2001-2017
</metadata>
<g transform="translate(0.000000,700.000000) scale(0.100000,-0.100000)"
fill="#000000" stroke="none">
<path d="M720 6085 c-25 -7 -58 -14 -74 -14 -16 -1 -52 -16 -81 -35 -28 -19
-64 -38 -78 -41 -15 -4 -27 -11 -27 -16 0 -5 -7 -9 -15 -9 -9 0 -34 -20 -58
-44 -23 -24 -57 -53 -75 -64 -33 -19 -94 -101 -107 -142 -3 -11 -10 -20 -14
-20 -19 0 -61 -78 -61 -111 0 -19 -4 -39 -10 -45 -5 -5 -14 -30 -19 -54 -5
-25 -16 -72 -25 -105 -20 -73 -20 -123 0 -200 9 -33 21 -82 26 -110 6 -27 14
-59 19 -70 4 -11 11 -45 15 -75 3 -30 10 -59 14 -65 4 -5 10 -34 14 -63 4 -29
16 -67 26 -85 11 -18 20 -48 20 -67 0 -19 6 -46 13 -61 8 -14 17 -49 20 -78 3
-29 10 -58 15 -65 5 -6 12 -33 15 -59 2 -26 12 -56 21 -66 9 -9 20 -41 26 -69
5 -29 14 -60 18 -70 5 -9 12 -46 16 -81 3 -35 10 -69 16 -76 5 -7 13 -34 17
-61 4 -30 13 -54 25 -62 13 -9 18 -26 18 -57 0 -24 6 -56 14 -72 8 -15 19 -55
24 -88 20 -119 34 -169 53 -193 12 -16 19 -40 19 -67 0 -26 6 -48 15 -55 9 -7
15 -29 15 -51 0 -21 6 -56 14 -76 8 -21 17 -58 21 -83 3 -24 12 -52 20 -60 8
-9 18 -39 21 -66 4 -27 13 -61 20 -76 8 -15 14 -47 14 -71 0 -24 7 -52 15 -63
8 -10 15 -38 15 -60 0 -26 8 -51 20 -67 11 -14 25 -48 30 -76 5 -29 14 -59 18
-69 5 -9 12 -43 15 -75 3 -32 10 -64 15 -70 5 -7 12 -34 15 -61 3 -29 12 -55
21 -61 9 -7 19 -34 22 -61 4 -27 13 -59 20 -71 8 -12 14 -39 14 -60 0 -21 7
-58 15 -83 8 -25 17 -62 20 -82 3 -21 12 -44 20 -52 8 -8 15 -21 15 -28 1 -7
9 -31 20 -53 11 -22 19 -48 20 -58 0 -33 33 -122 50 -137 9 -8 36 -54 59 -102
23 -49 46 -88 51 -88 4 0 27 -29 51 -65 24 -36 49 -65 54 -65 15 -1 55 -36 55
-49 0 -12 62 -61 78 -61 6 0 28 -18 48 -40 21 -22 44 -40 52 -40 7 0 26 -7 40
-14 15 -8 45 -23 66 -32 21 -10 50 -28 63 -40 13 -12 40 -26 61 -32 20 -5 89
-26 152 -45 223 -69 390 -59 700 43 35 11 74 30 85 40 12 11 25 20 31 20 19 0
121 78 190 146 87 84 188 216 203 265 6 20 22 50 35 68 26 35 54 109 81 211 9
36 27 88 40 115 13 28 33 88 45 135 42 164 48 185 70 240 25 61 60 185 60 213
0 10 10 37 21 60 33 63 54 148 80 322 14 96 24 113 50 89 11 -10 19 -27 19
-39 0 -13 7 -28 15 -35 9 -7 15 -29 15 -55 0 -26 6 -48 15 -55 9 -7 15 -29 15
-55 0 -31 7 -49 25 -69 16 -18 25 -39 25 -60 0 -19 7 -39 15 -46 9 -7 15 -29
15 -52 0 -21 6 -49 14 -61 8 -12 17 -42 20 -68 4 -26 15 -52 26 -62 13 -11 20
-29 20 -51 0 -18 7 -39 15 -46 8 -7 15 -28 15 -47 0 -19 6 -49 14 -66 8 -18
17 -49 20 -71 3 -21 11 -46 19 -55 16 -19 57 -139 57 -167 0 -11 7 -29 15 -40
8 -10 15 -29 15 -41 0 -12 9 -31 21 -42 11 -10 37 -51 57 -89 34 -65 94 -143
149 -196 92 -86 141 -125 231 -181 57 -36 109 -65 115 -65 7 0 30 -11 52 -25
22 -13 46 -25 53 -25 7 0 28 -11 45 -24 29 -22 56 -30 182 -57 22 -4 74 -11
115 -15 41 -3 77 -8 80 -9 12 -7 250 16 320 31 83 18 275 107 328 151 80 68
210 203 217 224 4 13 25 43 46 66 22 24 39 49 39 56 0 12 37 89 83 172 9 17
17 36 17 43 0 7 6 34 14 60 8 26 24 81 36 122 12 41 26 80 30 85 5 6 20 62 34
125 40 175 41 180 70 260 15 41 34 111 42 155 19 97 48 205 64 235 14 26 33
100 54 205 15 76 36 150 69 240 9 22 22 76 31 120 19 98 30 136 68 245 16 47
36 123 44 170 9 47 33 139 55 205 22 66 49 165 60 220 21 104 41 181 64 250 8
22 19 72 26 110 18 105 58 296 65 306 3 5 12 9 20 9 12 0 14 52 14 353 0 347
0 352 -21 365 -11 7 -34 43 -50 79 -17 36 -46 87 -66 113 -44 59 -169 165
-219 186 -21 9 -46 27 -57 40 -10 13 -65 47 -120 75 -56 28 -106 55 -112 59
-21 18 -124 33 -215 33 -127 0 -283 -24 -308 -46 -10 -9 -26 -17 -34 -17 -31
0 -178 -81 -198 -110 -11 -16 -31 -32 -43 -36 -28 -8 -67 -44 -67 -61 0 -7
-18 -32 -40 -54 -22 -23 -40 -47 -40 -54 0 -7 -7 -18 -15 -25 -8 -7 -15 -20
-15 -30 0 -10 -7 -23 -15 -30 -8 -7 -15 -21 -15 -31 0 -11 -9 -28 -19 -38 -11
-11 -23 -37 -27 -58 -4 -21 -13 -52 -21 -70 -7 -18 -13 -45 -13 -62 0 -16 -7
-42 -15 -57 -8 -16 -15 -41 -15 -56 0 -16 -9 -37 -20 -48 -11 -11 -20 -33 -20
-50 0 -16 -6 -49 -14 -72 -8 -24 -17 -63 -21 -87 -4 -24 -14 -59 -21 -77 -8
-18 -14 -43 -14 -55 0 -13 -7 -30 -16 -40 -14 -16 -28 -63 -57 -201 -7 -31
-15 -60 -19 -64 -4 -4 -11 -29 -14 -56 -5 -33 -13 -52 -25 -59 -13 -7 -19 -21
-19 -45 0 -19 -6 -50 -14 -69 -8 -18 -18 -59 -21 -89 -4 -31 -11 -58 -15 -61
-4 -3 -14 -29 -20 -57 -7 -29 -21 -69 -31 -88 -11 -19 -19 -54 -19 -77 0 -23
-5 -43 -11 -45 -6 -2 -13 -25 -16 -51 -5 -40 -10 -48 -30 -53 -13 -4 -26 -4
-28 -2 -3 2 -14 65 -26 139 -24 155 -46 248 -87 374 -17 50 -43 144 -60 210
-16 66 -41 150 -55 187 -13 36 -28 88 -31 115 -8 53 -58 230 -80 284 -8 19
-21 72 -31 119 -9 47 -25 108 -35 135 -55 150 -103 251 -135 286 -19 21 -35
44 -35 50 0 21 -158 167 -189 174 -17 3 -41 19 -53 35 -13 15 -50 40 -83 56
-33 16 -84 43 -113 61 -61 38 -159 58 -287 58 -93 -1 -233 -23 -255 -41 -8 -7
-44 -27 -80 -45 -48 -23 -88 -56 -151 -121 -78 -83 -95 -106 -128 -178 -6 -14
-15 -32 -19 -40 -35 -61 -72 -160 -82 -220 -4 -25 -12 -56 -18 -70 -6 -14 -14
-46 -17 -72 -4 -28 -13 -51 -22 -56 -10 -6 -17 -29 -21 -63 -2 -30 -11 -63
-18 -74 -8 -11 -14 -38 -14 -60 0 -23 -5 -46 -12 -53 -6 -6 -15 -37 -19 -67
-4 -34 -14 -62 -24 -69 -9 -6 -19 -32 -22 -56 -2 -25 -11 -59 -19 -77 -8 -17
-14 -47 -14 -68 0 -20 -6 -48 -14 -63 -7 -15 -17 -45 -21 -67 -4 -22 -15 -48
-26 -58 -13 -12 -19 -32 -19 -60 -1 -23 -7 -53 -15 -67 -8 -14 -15 -43 -15
-65 0 -22 -7 -49 -15 -59 -8 -11 -15 -31 -15 -45 0 -14 -11 -50 -25 -79 -14
-30 -25 -67 -25 -84 0 -16 -6 -44 -14 -61 -8 -18 -16 -51 -19 -74 -3 -28 -15
-52 -35 -74 l-29 -31 -6 33 c-3 19 -13 84 -22 144 -19 127 -53 275 -67 292 -5
7 -27 81 -48 165 -21 84 -50 185 -64 223 -15 39 -35 111 -46 160 -10 50 -37
145 -58 210 -22 66 -50 163 -62 215 -12 52 -30 111 -40 130 -19 35 -70 163
-70 174 0 11 -143 216 -150 216 -4 0 -30 19 -56 43 -49 43 -139 107 -151 107
-4 0 -28 18 -54 40 -26 22 -52 40 -57 40 -6 0 -23 6 -39 14 -15 8 -46 22 -68
31 -22 10 -58 26 -80 37 -72 34 -320 55 -395 33z m2258 -472 c6 -21 14 -54 17
-73 15 -98 19 -117 31 -135 16 -23 19 -91 4 -100 -5 -3 -10 -17 -10 -30 0 -13
5 -27 10 -30 18 -11 10 -39 -16 -65 -25 -23 -26 -28 -21 -94 5 -58 3 -73 -13
-93 -13 -17 -17 -34 -13 -57 4 -27 1 -35 -21 -50 -23 -14 -26 -22 -21 -50 6
-27 3 -35 -18 -49 -24 -16 -25 -20 -21 -89 2 -40 7 -83 10 -94 6 -23 -10 -42
-21 -24 -12 20 -23 9 -29 -31 -4 -23 -14 -55 -22 -71 -9 -17 -14 -39 -11 -49
3 -12 -2 -20 -14 -24 -15 -5 -19 -16 -19 -49 0 -23 -7 -51 -15 -62 -8 -10 -15
-31 -15 -46 0 -27 -20 -41 -20 -15 0 6 -5 4 -11 -6 -6 -10 -9 -34 -7 -53 2
-21 0 -34 -7 -34 -19 0 -55 -58 -55 -90 0 -27 -3 -30 -30 -30 -39 0 -70 31
-70 70 0 18 -6 33 -15 36 -10 4 -15 21 -15 54 0 28 -5 50 -12 52 -8 3 -9 11
-3 24 8 18 17 58 44 205 6 31 18 72 26 92 8 20 15 49 15 64 0 16 9 45 20 66
11 20 20 54 20 76 0 21 7 55 15 74 8 20 15 50 15 67 0 16 9 47 20 67 11 21 20
47 20 58 0 11 9 40 20 64 11 24 20 57 20 75 0 17 7 40 15 50 8 11 15 40 15 64
0 35 6 50 25 68 17 16 25 34 25 57 0 19 7 40 15 47 9 7 15 29 15 52 0 25 5 41
15 44 8 4 15 15 15 26 0 23 23 48 44 48 9 0 16 7 16 15 0 30 27 14 38 -22z
m-2652 3 c3 -13 4 -30 3 -37 -4 -21 62 -119 80 -119 14 -1 14 -2 -1 -14 -23
-17 -23 -26 2 -26 21 0 22 -1 26 -70 1 -25 7 -74 13 -110 5 -36 7 -94 4 -130
-4 -53 -2 -68 11 -79 12 -10 16 -31 16 -82 0 -53 3 -69 14 -69 16 0 32 -86 22
-118 -4 -12 2 -26 19 -42 22 -21 25 -32 25 -99 1 -51 5 -82 15 -95 8 -11 15
-31 15 -46 0 -15 9 -31 21 -38 20 -13 21 -19 15 -82 -7 -65 -6 -69 19 -88 15
-12 25 -30 25 -45 0 -15 8 -30 17 -35 14 -8 16 -24 15 -90 -2 -73 -1 -81 18
-87 16 -5 20 -15 20 -49 0 -23 4 -46 9 -52 5 -5 11 -27 14 -49 11 -83 15 -99
31 -110 12 -9 16 -30 16 -89 0 -65 3 -78 20 -88 13 -9 20 -24 20 -45 0 -27 4
-33 21 -33 21 0 22 -3 16 -63 -5 -49 -2 -72 14 -106 10 -24 19 -52 19 -62 0
-10 9 -23 21 -29 19 -11 20 -17 14 -79 -6 -56 -4 -71 10 -84 9 -10 20 -17 25
-17 4 0 8 -33 7 -72 0 -49 5 -83 16 -105 10 -18 17 -41 17 -51 0 -11 11 -27
24 -35 22 -15 23 -19 14 -69 -9 -49 -8 -54 14 -73 13 -11 22 -28 20 -38 -3
-12 4 -20 18 -24 22 -6 22 -9 15 -104 -7 -105 -7 -106 41 -100 8 1 8 -13 1
-49 -8 -42 -7 -53 5 -63 22 -17 36 -67 31 -104 -4 -21 3 -48 17 -78 18 -36 21
-56 16 -91 -4 -30 -1 -57 9 -81 8 -19 15 -48 15 -64 0 -15 5 -31 10 -34 16
-10 12 -62 -5 -69 -8 -3 -15 -12 -15 -20 0 -21 -35 -87 -60 -114 -22 -23 -37
-27 -56 -14 -14 8 -64 143 -71 190 -4 23 -13 36 -29 42 -19 7 -24 17 -24 43 0
18 -7 42 -15 53 -8 10 -15 39 -15 64 0 25 -6 54 -13 65 -8 11 -20 43 -27 70
-7 28 -19 59 -27 70 -7 11 -13 34 -13 52 0 18 -6 52 -14 75 -8 24 -17 63 -20
87 -4 24 -13 53 -21 64 -8 12 -15 35 -15 52 0 16 -9 44 -19 61 -10 17 -21 51
-24 75 -3 24 -10 64 -17 89 -6 25 -15 61 -20 80 -22 88 -49 173 -59 183 -6 6
-11 29 -11 51 -1 23 -7 52 -15 66 -8 14 -14 43 -15 65 0 22 -7 53 -16 70 -8
16 -20 52 -26 80 -6 27 -17 62 -24 77 -8 15 -14 41 -14 58 0 17 -7 47 -15 67
-8 19 -15 50 -15 67 0 17 -9 48 -20 69 -11 20 -20 48 -20 62 0 14 -9 42 -20
62 -11 21 -20 53 -20 71 0 18 -5 42 -11 53 -5 11 -15 47 -20 81 -5 34 -16 70
-24 82 -8 11 -15 33 -15 48 0 15 -9 50 -20 78 -11 28 -20 63 -20 78 0 16 -4
32 -9 37 -5 6 -14 39 -20 75 -5 36 -26 111 -45 168 -20 57 -36 118 -36 135 -1
18 -7 43 -15 57 -8 14 -14 42 -15 63 0 24 -7 43 -20 54 -13 12 -20 30 -20 55
0 20 -5 49 -11 65 -19 47 -42 194 -42 263 1 36 6 101 13 145 11 67 18 87 47
120 19 22 37 52 40 68 5 24 10 27 49 27 38 0 44 -3 50 -24z m5154 -27 c0 -5
-4 -9 -10 -9 -5 0 -10 -4 -10 -10 0 -5 8 -10 18 -10 10 0 25 -16 37 -41 11
-23 30 -46 43 -52 20 -9 23 -16 18 -40 -3 -16 -6 -36 -6 -43 0 -8 -7 -14 -15
-14 -15 0 -21 -21 -8 -33 3 -4 8 -33 9 -64 3 -49 0 -61 -20 -83 -17 -18 -25
-42 -30 -84 -4 -32 -11 -67 -17 -78 -6 -10 -8 -47 -6 -81 3 -54 0 -66 -20 -90
-16 -20 -23 -41 -23 -72 0 -34 -5 -47 -20 -55 -15 -8 -20 -21 -20 -54 0 -27
-6 -48 -15 -56 -10 -8 -15 -30 -15 -61 0 -39 -4 -49 -20 -54 -18 -6 -21 -14
-19 -56 2 -34 -2 -54 -14 -67 -9 -10 -17 -25 -17 -33 0 -8 -7 -23 -15 -33 -8
-11 -15 -30 -15 -43 0 -16 -6 -23 -20 -23 -13 0 -20 -7 -20 -20 0 -11 -9 -37
-20 -57 -11 -21 -20 -53 -20 -71 0 -33 -25 -82 -41 -82 -5 0 -9 13 -9 28 0 34
-16 52 -47 52 -17 0 -23 6 -23 22 0 12 -8 30 -17 40 -14 15 -17 35 -14 96 1
46 8 86 17 99 8 12 14 45 14 73 0 28 6 63 14 78 25 49 66 182 66 215 0 18 5
38 10 43 6 6 13 35 16 65 4 30 13 64 20 76 8 12 14 30 14 39 0 10 8 36 19 58
19 42 50 154 59 216 2 19 10 44 17 55 7 11 16 34 20 50 3 17 13 38 22 47 8 9
18 39 21 65 3 26 11 54 19 61 7 7 13 27 13 43 0 24 4 29 25 29 18 0 25 5 25
20 0 13 5 18 15 14 8 -4 15 -10 15 -15z m-1504 -2927 c8 -18 12 -37 9 -42 -3
-5 3 -18 15 -30 12 -12 20 -33 20 -55 0 -24 6 -37 20 -45 15 -8 20 -21 20 -54
0 -27 6 -48 15 -56 8 -7 15 -21 15 -32 0 -10 12 -31 26 -45 23 -22 25 -30 17
-62 -12 -49 -5 -82 18 -88 14 -4 19 -14 19 -40 0 -26 5 -36 18 -40 14 -3 18
-11 14 -29 -3 -19 -7 -22 -18 -13 -11 9 -14 5 -14 -25 0 -25 4 -36 15 -36 8 0
15 -7 15 -15 0 -9 7 -18 16 -22 15 -5 15 -7 0 -15 -9 -5 -16 -22 -16 -38 0
-24 5 -30 23 -31 18 -1 19 -2 3 -6 -17 -4 -18 -12 -12 -68 7 -67 -4 -100 -51
-153 l-23 -25 -40 44 c-22 24 -40 50 -40 56 0 7 -9 27 -20 45 -11 18 -20 45
-20 60 0 17 -8 31 -20 38 -15 8 -20 21 -20 55 0 27 -6 50 -16 60 -9 8 -18 35
-21 58 -3 23 -11 49 -18 57 -7 8 -15 32 -18 54 -3 21 -13 46 -20 55 -8 9 -18
40 -22 68 -4 29 -11 55 -16 59 -5 3 -9 21 -9 41 0 19 -6 49 -14 66 -8 18 -17
52 -19 77 -2 25 -10 60 -18 78 -13 32 -13 35 10 53 16 13 25 33 29 64 4 38 8
45 27 45 12 0 28 -7 35 -15 18 -21 37 -19 52 8 l13 22 3 -25 c2 -14 10 -40 18
-58z"/>
</g>
</svg>
